<svg version="1.1" id="Layer_1" xmlns="http://www.w3.org/2000/svg" xmlns:xlink="http://www.w3.org/1999/xlink" x="0px" y="0px"
	 width="100%" viewBox="0 0 568 181" enable-background="new 0 0 568 181" xml:space="preserve">
<path fill="#FD8130" opacity="1.000000" stroke="none" 
	d="
M157.000000,1.000001 
	C179.354233,1.000000 201.708450,1.000000 224.533264,1.405461 
	C225.545227,3.862466 225.867111,6.005270 226.674164,7.946349 
	C228.298935,11.854218 230.181610,15.655174 231.969345,19.494904 
	C235.168945,26.367006 238.438034,33.207527 241.566040,40.112000 
	C245.436295,48.654846 249.192459,57.249382 252.632019,65.994507 
	C251.907898,67.055672 251.232010,67.946671 251.239639,68.831764 
	C251.335480,79.946594 251.264969,91.073166 251.792740,102.170303 
	C252.144058,109.557785 255.799805,113.775856 261.526886,114.957306 
	C268.688385,116.434685 274.976379,113.393394 278.773621,106.886459 
	C281.429901,108.652054 283.715729,110.326027 286.097168,112.315414 
	C286.460968,113.445793 286.729126,114.260757 287.079865,115.404907 
	C292.000732,122.206711 296.551086,128.921173 301.740448,135.098877 
	C310.994293,146.115234 320.672424,156.774200 330.094940,167.650360 
	C334.163605,172.346680 338.037567,177.211655 342.000000,182.000000 
	C318.979095,182.000000 295.958221,182.000000 272.390717,181.666229 
	C268.872284,177.392700 265.906342,173.448471 262.927582,169.513931 
	C252.345078,155.535934 241.624496,141.659180 231.264771,127.518036 
	C228.594925,123.873695 227.054474,119.401962 225.441681,115.258926 
	C232.665375,112.100136 235.314392,118.152962 239.255280,121.828316 
	C240.951050,120.259369 242.331650,118.982033 243.798492,117.624893 
	C241.824249,115.005112 240.148712,112.781693 238.470825,110.555168 
	C245.016922,101.547691 245.599426,91.592911 243.836166,81.340591 
	C242.294556,72.377151 235.059921,66.002884 226.831070,65.867073 
	C218.480942,65.729263 211.358109,71.696831 209.255325,80.659233 
	C208.764648,82.750587 208.454987,84.884415 207.736328,86.889343 
	C204.838455,82.209625 202.050507,77.745453 199.738617,73.047043 
	C194.781631,62.973083 190.245468,52.689648 185.178558,42.673306 
	C182.926849,38.222076 179.807312,34.209846 176.919617,29.686110 
	C174.250839,21.659290 168.237854,19.735085 160.998108,19.430923 
	C160.014297,15.550189 158.906937,12.100181 158.094681,8.582042 
	C157.522232,6.102612 157.350586,3.530649 157.000000,1.000001 
z"/>
<path fill="#FD8A3E" opacity="1.000000" stroke="none" 
	d="
M442.000000,1.000001 
	C484.253693,1.000000 526.507385,1.000000 569.000000,1.000000 
	C569.000000,36.020531 569.000000,71.041611 568.615845,106.523575 
	C563.588623,104.965523 558.892090,103.059906 554.315063,100.900970 
	C547.518372,97.695076 540.806213,94.309883 533.955872,90.599625 
	C533.556580,88.236626 533.313110,86.265144 532.953796,84.314987 
	C530.704956,72.107208 522.616333,65.341782 510.257507,65.278564 
	C507.283661,65.263359 504.310059,65.198471 500.976868,65.064812 
	C495.122345,60.526127 489.047821,56.625416 484.242279,51.528301 
	C470.503296,36.955791 457.225739,21.945200 443.940430,6.952993 
	C442.670959,5.520417 442.617798,3.010030 442.000000,1.000001 
z"/>
<path fill="#FD8332" opacity="1.000000" stroke="none" 
	d="
M252.997894,65.821594 
	C249.192459,57.249382 245.436295,48.654846 241.566040,40.112000 
	C238.438034,33.207527 235.168945,26.367006 231.969345,19.494904 
	C230.181610,15.655174 228.298935,11.854218 226.674164,7.946349 
	C225.867111,6.005270 225.545227,3.862466 225.001923,1.405461 
	C240.020889,1.000000 255.041794,1.000000 270.533386,1.407140 
	C272.748596,6.980588 273.797485,12.525057 276.363281,17.244928 
	C285.399414,33.867283 294.917297,50.229046 304.371094,66.621223 
	C305.403320,68.411026 307.204163,69.757568 308.451813,71.603210 
	C302.438538,79.097176 301.376770,87.200073 302.008759,96.334442 
	C302.945496,109.873749 316.681030,118.056923 327.954193,114.182312 
	C329.920288,117.983627 331.585358,121.587448 333.853943,124.759697 
	C335.756165,127.419701 338.406036,129.535950 340.649475,131.962631 
	C349.055634,141.055405 357.279816,150.322815 365.884888,159.222427 
	C369.862122,163.335815 374.760590,166.546249 378.871399,170.546326 
	C382.513794,174.090637 385.643799,178.161560 389.000000,182.000000 
	C373.645782,182.000000 358.291534,182.000000 342.468658,182.000000 
	C338.037567,177.211655 334.163605,172.346680 330.094940,167.650360 
	C320.672424,156.774200 310.994293,146.115234 301.740448,135.098877 
	C296.551086,128.921173 292.000732,122.206711 287.524353,115.368118 
	C295.276672,114.669762 295.262451,114.669838 295.223816,107.207268 
	C295.164337,95.712074 295.143921,84.216660 295.073669,72.721550 
	C295.027100,65.098648 294.219879,64.533615 286.001526,66.838684 
	C286.001526,81.761696 286.001526,96.880852 286.001526,112.000000 
	C283.715729,110.326027 281.429901,108.652054 278.857635,106.434982 
	C278.934418,93.744598 279.299133,81.597351 279.659760,69.449982 
	C279.733154,66.978416 278.645630,66.062988 276.063629,65.893227 
	C272.164520,65.636856 270.843353,66.840736 270.941864,70.906548 
	C271.171692,80.392693 271.102692,89.901817 270.669647,99.379463 
	C270.525208,102.541351 269.625275,106.429863 265.004333,106.220100 
	C260.342804,106.008492 260.162476,102.169594 260.089783,98.888626 
	C259.920105,91.229065 260.089874,83.562088 260.114563,75.898079 
	C260.125000,72.659637 260.116333,69.421120 260.116333,66.151840 
	C257.309479,66.021622 255.153687,65.921608 252.997894,65.821594 
z"/>
<path fill="#FD7F2D" opacity="1.000000" stroke="none" 
	d="
M224.995209,115.310318 
	C227.054474,119.401962 228.594925,123.873695 231.264771,127.518036 
	C241.624496,141.659180 252.345078,155.535934 262.927582,169.513931 
	C265.906342,173.448471 268.872284,177.392700 271.922058,181.666229 
	C238.645767,182.000000 205.291550,182.000000 171.388031,181.661209 
	C167.229340,176.055786 163.619934,170.789169 160.453094,165.468689 
	C173.372589,165.169022 177.030731,161.390198 177.035645,148.741714 
	C177.051056,109.160591 177.066345,69.579468 177.081665,29.998348 
	C179.807312,34.209846 182.926849,38.222076 185.178558,42.673306 
	C190.245468,52.689648 194.781631,62.973083 199.738617,73.047043 
	C202.050507,77.745453 204.838455,82.209625 207.810974,87.331490 
	C208.464844,91.033463 208.539261,94.210625 209.004547,97.329491 
	C210.551804,107.700920 215.441330,113.117813 224.995209,115.310318 
z"/>
<path fill="#FD8537" opacity="1.000000" stroke="none" 
	d="
M529.000000,182.000000 
	C500.645782,182.000000 472.291534,182.000000 443.390320,181.665802 
	C438.358917,177.027771 434.148163,172.385101 429.330444,168.493912 
	C420.562012,161.411865 410.982605,155.283707 402.573425,147.820267 
	C392.913391,139.246597 384.104675,129.705994 375.061310,120.453270 
	C373.651886,119.011230 372.961395,116.866493 372.011658,114.977394 
	C372.084869,114.908096 372.229065,114.767105 372.651031,114.833893 
	C375.349548,114.900673 377.626068,114.900673 380.725677,114.900673 
	C380.725677,108.827675 380.725677,103.240631 380.725677,97.653587 
	C383.730591,101.409462 385.591095,105.271652 387.423096,109.147293 
	C390.616180,115.902405 390.608826,115.905876 399.420380,114.344574 
	C396.582642,108.581772 393.896240,102.944839 391.033386,97.398987 
	C389.835663,95.078796 389.865845,93.586441 391.723663,91.294083 
	C394.122253,88.334503 395.409576,84.474327 397.524170,81.030540 
	C400.498352,82.373482 403.123871,83.687859 405.816345,85.466461 
	C405.883301,95.137451 405.883301,104.344223 405.883301,114.167572 
	C412.413483,114.167572 418.298950,114.269104 424.174225,114.070320 
	C425.185333,114.036110 426.153229,112.724594 427.499329,112.029846 
	C430.909210,113.705513 433.960907,115.354431 436.971680,117.350464 
	C436.459320,118.968788 435.987854,120.240005 435.455170,121.676300 
	C438.029388,121.830948 440.014282,121.950180 442.111938,122.379257 
	C446.071869,126.075211 449.676117,129.797958 453.812805,132.782730 
	C465.061157,140.898819 476.381073,148.936554 487.970154,156.552612 
	C496.520355,162.171600 505.589752,166.994629 514.328003,172.335678 
	C519.321960,175.388138 524.115967,178.767700 529.000000,182.000000 
z"/>
<path fill="#FD7A24" opacity="1.000000" stroke="none" 
	d="
M111.000000,182.000000 
	C74.383354,182.000000 37.766716,182.000000 1.075036,182.000000 
	C1.075036,121.666702 1.075036,61.333363 1.075036,1.000000 
	C10.755768,1.000000 20.409225,1.000000 30.531912,1.430050 
	C32.334358,7.850965 33.667576,13.841830 34.554443,19.899961 
	C20.146173,18.913996 15.692776,25.264469 15.846528,38.245163 
	C16.284237,75.199234 15.998699,112.161850 16.000134,149.121109 
	C16.000607,161.304993 20.006029,165.341583 32.075821,165.366104 
	C55.380970,165.413467 78.686096,165.469818 102.085709,165.831390 
	C103.151649,167.664108 104.215744,169.137558 105.076027,170.721695 
	C107.102386,174.453049 109.031525,178.237213 111.000000,182.000000 
z"/>
<path fill="#FD883B" opacity="1.000000" stroke="none" 
	d="
M441.531342,1.000001 
	C442.617798,3.010030 442.670959,5.520417 443.940430,6.952993 
	C457.225739,21.945200 470.503296,36.955791 484.242279,51.528301 
	C489.047821,56.625416 495.122345,60.526127 500.696106,65.336540 
	C500.252441,67.865829 499.305237,70.025963 499.275513,72.198662 
	C499.057434,88.131836 499.023163,104.067528 498.618042,119.867294 
	C494.833893,117.904510 491.362640,116.076866 487.622070,114.018097 
	C479.358521,97.845482 471.364319,81.904007 463.048248,65.320709 
	C460.734528,69.800209 458.875092,73.400223 456.681213,76.923141 
	C455.269714,76.100876 454.069489,75.484810 453.133789,74.591591 
	C432.788513,55.169647 415.421295,33.268757 399.760101,9.985750 
	C397.982544,7.343097 397.228607,4.011910 396.000000,0.999999 
	C411.020905,1.000000 426.041779,1.000000 441.531342,1.000001 
z"/>
<path fill="#FD8434" opacity="1.000000" stroke="none" 
	d="
M371.938446,115.046692 
	C372.961395,116.866493 373.651886,119.011230 375.061310,120.453270 
	C384.104675,129.705994 392.913391,139.246597 402.573425,147.820267 
	C410.982605,155.283707 420.562012,161.411865 429.330444,168.493912 
	C434.148163,172.385101 438.358917,177.027771 442.921692,181.665802 
	C425.312439,182.000000 407.624878,182.000000 389.468658,182.000000 
	C385.643799,178.161560 382.513794,174.090637 378.871399,170.546326 
	C374.760590,166.546249 369.862122,163.335815 365.884888,159.222427 
	C357.279816,150.322815 349.055634,141.055405 340.649475,131.962631 
	C338.406036,129.535950 335.756165,127.419701 333.853943,124.759697 
	C331.585358,121.587448 329.920288,117.983627 327.957275,113.747925 
	C327.920837,111.034485 327.920837,109.139885 327.920837,107.310623 
	C315.021210,106.316269 312.696991,104.938789 310.504761,96.095940 
	C308.584625,88.350739 310.462189,75.734718 320.089417,74.507957 
	C322.043610,78.208420 323.499023,81.911346 325.889465,84.854965 
	C328.158691,87.649300 331.406555,89.648865 334.337219,92.455414 
	C334.450378,100.161140 334.450378,107.409386 334.450378,114.709785 
	C337.828735,114.709785 340.236877,114.709785 343.763885,114.709785 
	C343.763885,108.327621 343.763885,102.250938 343.763885,96.174248 
	C344.247742,96.149757 344.731628,96.125267 345.215485,96.100769 
	C348.440491,101.583679 351.534271,107.149765 354.937805,112.519508 
	C357.113342,115.951874 362.782593,116.130592 365.925110,113.131302 
	C368.191162,113.756577 370.064789,114.401642 371.938446,115.046692 
z"/>
<path fill="#FD8639" opacity="1.000000" stroke="none" 
	d="
M395.531342,0.999999 
	C397.228607,4.011910 397.982544,7.343097 399.760101,9.985750 
	C415.421295,33.268757 432.788513,55.169647 453.133789,74.591591 
	C454.069489,75.484810 455.269714,76.100876 456.634491,77.281860 
	C450.285675,90.812920 443.649139,103.908142 437.012573,117.003357 
	C433.960907,115.354431 430.909210,113.705513 427.434204,111.612251 
	C427.683563,100.615746 418.521423,107.269028 414.583557,103.971909 
	C414.583557,102.255981 414.782349,100.245689 414.543884,98.288689 
	C413.976959,93.636116 415.539429,91.750336 420.536652,92.066666 
	C427.004913,92.476105 427.759430,90.994339 425.416595,83.888885 
	C422.127380,83.888885 418.688110,83.888885 415.027313,83.888885 
	C415.027313,80.402763 415.027313,77.368454 415.027313,74.117622 
	C419.245880,73.908676 422.972534,73.724083 426.671021,73.540894 
	C426.671021,70.703468 426.671021,68.433319 426.671021,65.604485 
	C420.255066,65.604485 414.137970,65.604485 408.011780,65.178986 
	C407.015228,62.185951 406.460052,59.321911 404.946503,57.115204 
	C402.159515,53.051907 398.585480,49.533173 395.737610,45.505932 
	C388.601562,35.414753 381.433960,25.327646 374.810272,14.901402 
	C372.156036,10.723394 370.895111,5.660256 369.000000,1.000003 
	C377.687561,1.000000 386.375122,1.000000 395.531342,0.999999 
z"/>
<path fill="#FD8537" opacity="1.000000" stroke="none" 
	d="
M372.011658,114.977402 
	C370.064789,114.401642 368.191162,113.756577 365.706390,112.887268 
	C362.400940,107.917816 360.185577,102.806923 356.904602,98.509621 
	C351.424561,91.332016 351.922577,84.932709 357.246887,78.014671 
	C359.855774,74.624870 361.549194,70.530510 363.651215,66.765350 
	C356.569092,64.218475 352.876465,67.240952 350.045471,72.043854 
	C347.790680,69.901962 345.701019,68.089890 343.608398,66.249008 
	C343.605408,66.220192 343.595123,66.276405 343.665131,65.885101 
	C343.060852,63.521080 342.707397,61.356796 341.661865,59.605740 
	C332.685089,44.571648 323.440674,29.695509 314.611145,14.576589 
	C312.164703,10.387485 310.839600,5.543509 309.000000,0.999996 
	C321.020905,1.000000 333.041779,1.000000 345.539124,1.390285 
	C346.232208,2.916347 346.147736,4.235395 346.710663,5.160487 
	C355.669159,19.882839 364.730865,34.542328 373.722290,49.244728 
	C376.992645,54.592316 383.574493,58.070290 382.548889,65.679474 
	C380.939423,65.776291 379.753632,65.955963 378.622437,65.781593 
	C373.699829,65.022758 371.967194,66.796394 372.094482,71.985390 
	C372.444122,86.238487 372.223816,100.505562 372.229065,114.767105 
	C372.229065,114.767105 372.084869,114.908096 372.011658,114.977402 
z"/>
<path fill="#FD8435" opacity="1.000000" stroke="none" 
	d="
M308.531372,0.999996 
	C310.839600,5.543509 312.164703,10.387485 314.611145,14.576589 
	C323.440674,29.695509 332.685089,44.571648 341.661865,59.605740 
	C342.707397,61.356796 343.060852,63.521080 343.244476,65.794785 
	C340.330322,66.095764 337.906799,66.095764 334.224091,66.095764 
	C334.224091,74.989151 334.224091,83.493538 334.224091,91.997925 
	C331.406555,89.648865 328.158691,87.649300 325.889465,84.854965 
	C323.499023,81.911346 322.043610,78.208420 320.529877,74.429794 
	C323.148987,73.896812 325.417877,73.771309 327.622253,73.649368 
	C328.387085,65.151489 327.517609,64.105156 319.730988,66.094681 
	C315.846252,67.087257 312.330902,69.525436 308.648468,71.309715 
	C307.204163,69.757568 305.403320,68.411026 304.371094,66.621223 
	C294.917297,50.229046 285.399414,33.867283 276.363281,17.244928 
	C273.797485,12.525057 272.748596,6.980588 271.002014,1.407140 
	C283.354218,1.000000 295.708466,1.000000 308.531372,0.999996 
z"/>
<path fill="#FD883B" opacity="1.000000" stroke="none" 
	d="
M534.058105,91.001007 
	C540.806213,94.309883 547.518372,97.695076 554.315063,100.900970 
	C558.892090,103.059906 563.588623,104.965523 568.615845,106.992233 
	C569.000000,123.020897 569.000000,139.041794 568.597778,155.529495 
	C566.294739,155.537247 564.224976,155.414368 562.523071,154.559387 
	C556.083313,151.324280 549.989197,147.297043 543.348816,144.587891 
	C530.994263,139.547394 519.890991,132.429962 508.750305,125.305145 
	C507.136688,124.273170 505.581238,123.150192 504.433411,121.976746 
	C507.995575,121.600471 511.140869,121.442467 514.247314,121.007156 
	C520.913635,120.072952 526.177795,117.387344 529.738647,111.028801 
	C533.322815,104.628593 533.299377,97.813187 534.058105,91.001007 
z"/>
<path fill="#FD8639" opacity="1.000000" stroke="none" 
	d="
M529.468628,182.000000 
	C524.115967,178.767700 519.321960,175.388138 514.328003,172.335678 
	C505.589752,166.994629 496.520355,162.171600 487.970154,156.552612 
	C476.381073,148.936554 465.061157,140.898819 453.812805,132.782730 
	C449.676117,129.797958 446.071869,126.075211 442.574341,122.296211 
	C452.282562,121.958252 461.641266,122.013168 471.082031,122.397736 
	C472.477325,124.174278 473.585968,125.906929 475.139038,127.018898 
	C482.132812,132.026520 489.069427,137.153778 496.372498,141.679810 
	C505.921326,147.597687 515.638489,153.289490 525.579651,158.514557 
	C533.680664,162.772446 542.155762,166.345413 550.581604,169.949448 
	C556.621277,172.532852 562.853638,174.665985 569.000000,177.000000 
	C569.000000,178.650284 569.000000,180.300583 569.000000,182.000000 
	C555.979126,182.000000 542.958252,182.000000 529.468628,182.000000 
z"/>
<path fill="#FD8639" opacity="1.000000" stroke="none" 
	d="
M569.000000,176.531464 
	C562.853638,174.665985 556.621277,172.532852 550.581604,169.949448 
	C542.155762,166.345413 533.680664,162.772446 525.579651,158.514557 
	C515.638489,153.289490 505.921326,147.597687 496.372498,141.679810 
	C489.069427,137.153778 482.132812,132.026520 475.139038,127.018898 
	C473.585968,125.906929 472.477325,124.174278 471.544281,122.315933 
	C478.122162,121.904472 484.319855,121.904472 490.998474,121.904472 
	C489.734894,118.791298 488.813141,116.520264 487.891388,114.249222 
	C491.362640,116.076866 494.833893,117.904510 498.826355,120.148209 
	C500.897980,121.065948 502.448456,121.567627 503.998901,122.069321 
	C505.581238,123.150192 507.136688,124.273170 508.750305,125.305145 
	C519.890991,132.429962 530.994263,139.547394 543.348816,144.587891 
	C549.989197,147.297043 556.083313,151.324280 562.523071,154.559387 
	C564.224976,155.414368 566.294739,155.537247 568.597778,155.998154 
	C569.000000,162.687637 569.000000,169.375290 569.000000,176.531464 
z"/>
<path fill="#FD8639" opacity="1.000000" stroke="none" 
	d="
M382.997711,65.599396 
	C383.574493,58.070290 376.992645,54.592316 373.722290,49.244728 
	C364.730865,34.542328 355.669159,19.882839 346.710663,5.160487 
	C346.147736,4.235395 346.232208,2.916347 346.007751,1.390285 
	C353.354248,1.000000 360.708496,1.000000 368.531372,1.000003 
	C370.895111,5.660256 372.156036,10.723394 374.810272,14.901402 
	C381.433960,25.327646 388.601562,35.414753 395.737610,45.505932 
	C398.585480,49.533173 402.159515,53.051907 404.946503,57.115204 
	C406.460052,59.321911 407.015228,62.185951 407.672119,65.329468 
	C406.891876,67.359802 406.121857,68.798767 406.051056,70.271347 
	C405.815186,75.175140 405.830383,80.091003 405.749359,85.002235 
	C403.123871,83.687859 400.498352,82.373482 397.459290,80.618912 
	C396.301056,70.333221 392.749084,66.646927 382.997711,65.599396 
z"/>
<path fill="#FD7C28" opacity="1.000000" stroke="none" 
	d="
M35.000797,19.832695 
	C33.667576,13.841830 32.334358,7.850965 31.000568,1.430050 
	C53.020893,1.000000 75.041786,1.000000 97.559860,1.386954 
	C100.038216,7.793217 102.019394,13.812527 103.536148,19.899395 
	C80.381416,19.922201 57.691105,19.877447 35.000797,19.832695 
z"/>
<path fill="#FD7F2C" opacity="1.000000" stroke="none" 
	d="
M104.000580,19.831837 
	C102.019394,13.812527 100.038216,7.793217 98.028519,1.386954 
	C117.354225,1.000000 136.708450,1.000000 156.531342,1.000001 
	C157.350586,3.530649 157.522232,6.102612 158.094681,8.582042 
	C158.906937,12.100181 160.014297,15.550189 160.533661,19.498384 
	C141.381378,19.922251 122.690979,19.877045 104.000580,19.831837 
z"/>
<path fill="#F57928" opacity="1.000000" stroke="none" 
	d="
M111.468658,182.000000 
	C109.031525,178.237213 107.102386,174.453049 105.076027,170.721695 
	C104.215744,169.137558 103.151649,167.664108 102.550484,165.765411 
	C121.950699,165.434479 140.980621,165.478516 160.010529,165.522552 
	C163.619934,170.789169 167.229340,176.055786 170.919373,181.661209 
	C151.312439,182.000000 131.624878,182.000000 111.468658,182.000000 
z"/>
<path fill="#232831" opacity="1.000000" stroke="none" 
	d="
M160.453094,165.468689 
	C140.980621,165.478516 121.950699,165.434479 102.456009,165.456451 
	C78.686096,165.469818 55.380970,165.413467 32.075821,165.366104 
	C20.006029,165.341583 16.000607,161.304993 16.000134,149.121109 
	C15.998699,112.161850 16.284237,75.199234 15.846528,38.245163 
	C15.692776,25.264469 20.146173,18.913996 34.554443,19.899961 
	C57.691105,19.877447 80.381416,19.922201 103.536148,19.899395 
	C122.690979,19.877045 141.381378,19.922251 160.536224,19.899994 
	C168.237854,19.735085 174.250839,21.659290 176.919617,29.686111 
	C177.066345,69.579468 177.051056,109.160591 177.035645,148.741714 
	C177.030731,161.390198 173.372589,165.169022 160.453094,165.468689 
M63.400066,99.024590 
	C63.219559,99.036980 63.039055,99.049377 62.192944,99.579170 
	C61.304577,107.295753 61.529499,114.924828 65.095581,122.003807 
	C68.878914,129.514053 74.628845,131.040344 81.374634,126.097771 
	C84.342484,123.923264 87.053673,124.863350 88.477310,126.712433 
	C93.175392,132.814514 99.836548,134.287033 106.641838,135.039291 
	C115.950790,136.068329 119.710632,131.839828 119.231339,122.421135 
	C119.159218,121.003716 120.672791,118.396080 121.774872,118.205978 
	C129.769119,116.827103 135.113434,111.773491 139.616180,105.730194 
	C144.682999,98.929848 142.698059,92.041656 134.916473,88.909340 
	C132.383499,87.889755 131.410934,86.634224 132.295959,84.117851 
	C134.875153,76.784370 133.703369,69.669579 130.611679,62.886906 
	C126.862991,54.662930 121.534126,53.374714 113.731255,57.804665 
	C112.125526,58.716286 108.299858,58.820587 107.699043,57.884270 
	C104.371422,52.698410 98.905510,51.541763 93.859306,49.906029 
	C81.023979,45.745438 74.337257,51.758442 76.812752,64.837654 
	C76.864716,65.112213 76.676369,65.432251 76.543282,65.953911 
	C75.916641,66.208244 75.142075,66.823105 74.414581,66.771706 
	C66.555214,66.216377 62.036144,71.519920 57.329895,76.440605 
	C50.218452,83.876053 51.574497,93.394989 62.633083,96.140930 
	C63.266575,96.298241 63.514622,98.007805 63.400066,99.024590 
z"/>
<path fill="#FFFBF9" opacity="1.000000" stroke="none" 
	d="
M225.441681,115.258926 
	C215.441330,113.117813 210.551804,107.700920 209.004547,97.329491 
	C208.539261,94.210625 208.464844,91.033463 208.136688,87.440857 
	C208.454987,84.884415 208.764648,82.750587 209.255325,80.659233 
	C211.358109,71.696831 218.480942,65.729263 226.831070,65.867073 
	C235.059921,66.002884 242.294556,72.377151 243.836166,81.340591 
	C245.599426,91.592911 245.016922,101.547691 238.470825,110.555168 
	C240.148712,112.781693 241.824249,115.005112 243.798492,117.624893 
	C242.331650,118.982033 240.951050,120.259369 239.255280,121.828316 
	C235.314392,118.152962 232.665375,112.100136 225.441681,115.258926 
M234.321732,78.415825 
	C232.346085,75.103401 229.540726,71.705605 225.703354,73.172264 
	C222.581863,74.365311 219.396912,77.519455 217.979248,80.603394 
	C214.968018,87.153938 215.287979,94.205879 217.981659,101.009956 
	C219.460083,104.744408 222.035599,107.023209 226.219757,107.141853 
	C230.663956,107.267860 233.374496,104.895317 234.953751,101.000015 
	C237.924561,93.672333 237.462006,86.363609 234.321732,78.415825 
z"/>
<path fill="#FFFBF8" opacity="1.000000" stroke="none" 
	d="
M252.632019,65.994507 
	C255.153687,65.921608 257.309479,66.021622 260.116333,66.151840 
	C260.116333,69.421120 260.125000,72.659637 260.114563,75.898079 
	C260.089874,83.562088 259.920105,91.229065 260.089783,98.888626 
	C260.162476,102.169594 260.342804,106.008492 265.004333,106.220100 
	C269.625275,106.429863 270.525208,102.541351 270.669647,99.379463 
	C271.102692,89.901817 271.171692,80.392693 270.941864,70.906548 
	C270.843353,66.840736 272.164520,65.636856 276.063629,65.893227 
	C278.645630,66.062988 279.733154,66.978416 279.659760,69.449982 
	C279.299133,81.597351 278.934418,93.744598 278.487152,106.343369 
	C274.976379,113.393394 268.688385,116.434685 261.526886,114.957306 
	C255.799805,113.775856 252.144058,109.557785 251.792740,102.170303 
	C251.264969,91.073166 251.335480,79.946594 251.239639,68.831764 
	C251.232010,67.946671 251.907898,67.055672 252.632019,65.994507 
z"/>
<path fill="#FFFBF9" opacity="1.000000" stroke="none" 
	d="
M286.097168,112.315414 
	C286.001526,96.880852 286.001526,81.761696 286.001526,66.838684 
	C294.219879,64.533615 295.027100,65.098648 295.073669,72.721550 
	C295.143921,84.216660 295.164337,95.712074 295.223816,107.207268 
	C295.262451,114.669838 295.276672,114.669762 287.441711,115.038933 
	C286.729126,114.260757 286.460968,113.445793 286.097168,112.315414 
z"/>
<path fill="#FFFBF8" opacity="1.000000" stroke="none" 
	d="
M504.433411,121.976746 
	C502.448456,121.567627 500.897980,121.065948 499.139221,120.283348 
	C499.023163,104.067528 499.057434,88.131836 499.275513,72.198662 
	C499.305237,70.025963 500.252441,67.865829 501.055603,65.428154 
	C504.310059,65.198471 507.283661,65.263359 510.257507,65.278564 
	C522.616333,65.341782 530.704956,72.107208 532.953796,84.314987 
	C533.313110,86.265144 533.556580,88.236626 533.955872,90.599625 
	C533.299377,97.813187 533.322815,104.628593 529.738647,111.028801 
	C526.177795,117.387344 520.913635,120.072952 514.247314,121.007156 
	C511.140869,121.442467 507.995575,121.600471 504.433411,121.976746 
M518.898804,77.511078 
	C516.121094,75.114731 513.087708,73.885048 509.023743,75.294479 
	C509.023743,86.736778 508.935608,98.039871 509.170410,109.336250 
	C509.192078,110.379059 511.207520,112.161690 512.404114,112.256912 
	C516.508850,112.583565 520.849060,108.814232 522.251038,103.100586 
	C524.353699,94.531517 524.614136,85.943977 518.898804,77.511078 
z"/>
<path fill="#FFFAF8" opacity="1.000000" stroke="none" 
	d="
M308.451813,71.603226 
	C312.330902,69.525436 315.846252,67.087257 319.730988,66.094681 
	C327.517609,64.105156 328.387085,65.151489 327.622253,73.649368 
	C325.417877,73.771309 323.148987,73.896812 320.439636,74.100494 
	C310.462189,75.734718 308.584625,88.350739 310.504761,96.095940 
	C312.696991,104.938789 315.021210,106.316269 327.920837,107.310623 
	C327.920837,109.139885 327.920837,111.034485 327.917725,113.363472 
	C316.681030,118.056923 302.945496,109.873749 302.008759,96.334442 
	C301.376770,87.200073 302.438538,79.097176 308.451813,71.603226 
z"/>
<path fill="#FFFBF9" opacity="1.000000" stroke="none" 
	d="
M487.622070,114.018097 
	C488.813141,116.520264 489.734894,118.791298 490.998474,121.904472 
	C484.319855,121.904472 478.122162,121.904472 471.462219,121.986282 
	C461.641266,122.013168 452.282562,121.958252 442.461517,121.986374 
	C440.014282,121.950180 438.029388,121.830948 435.455170,121.676300 
	C435.987854,120.240005 436.459320,118.968788 436.971680,117.350464 
	C443.649139,103.908142 450.285675,90.812920 456.968933,77.358963 
	C458.875092,73.400223 460.734528,69.800209 463.048248,65.320709 
	C471.364319,81.904007 479.358521,97.845482 487.622070,114.018097 
M462.894836,76.997314 
	C456.236267,90.132027 449.577667,103.266731 442.728241,116.777924 
	C456.621307,116.777924 469.701324,116.777924 482.836426,116.777924 
	C481.782440,112.242432 481.782806,112.172676 477.881226,112.153000 
	C469.004089,112.108223 460.126617,112.138885 450.351013,112.138885 
	C454.864868,103.116165 458.863708,95.122902 463.273651,86.307838 
	C466.226288,92.292336 468.622894,97.149887 471.415100,102.809189 
	C468.127136,102.809189 465.612457,102.427864 463.287811,102.928719 
	C461.396332,103.336243 459.732574,104.800613 457.967834,105.796318 
	C458.239685,106.233482 458.511536,106.670639 458.783386,107.107796 
	C465.277954,107.107796 471.772552,107.107796 478.944031,107.107796 
	C473.574310,96.556297 468.532440,86.649048 462.894836,76.997314 
z"/>
<path fill="#FFFBF8" opacity="1.000000" stroke="none" 
	d="
M382.548889,65.679474 
	C392.749084,66.646927 396.301056,70.333221 397.110596,80.590340 
	C395.409576,84.474327 394.122253,88.334503 391.723663,91.294083 
	C389.865845,93.586441 389.835663,95.078796 391.033386,97.398987 
	C393.896240,102.944839 396.582642,108.581772 399.420380,114.344574 
	C390.608826,115.905876 390.616180,115.902405 387.423096,109.147293 
	C385.591095,105.271652 383.730591,101.409462 380.725677,97.653587 
	C380.725677,103.240631 380.725677,108.827675 380.725677,114.900673 
	C377.626068,114.900673 375.349548,114.900673 372.651001,114.833893 
	C372.223816,100.505562 372.444122,86.238487 372.094482,71.985390 
	C371.967194,66.796394 373.699829,65.022758 378.622437,65.781593 
	C379.753632,65.955963 380.939423,65.776291 382.548889,65.679474 
M386.761932,75.672729 
	C384.760376,74.286636 381.853516,72.023491 380.920441,75.615196 
	C379.865356,79.676643 380.677185,84.223076 380.677185,88.663193 
	C388.161469,87.413818 390.071716,83.362289 386.761932,75.672729 
z"/>
<path fill="#FFFDFB" opacity="1.000000" stroke="none" 
	d="
M405.816345,85.466461 
	C405.830383,80.091003 405.815186,75.175140 406.051056,70.271347 
	C406.121857,68.798767 406.891876,67.359802 407.681213,65.754959 
	C414.137970,65.604485 420.255066,65.604485 426.671021,65.604485 
	C426.671021,68.433319 426.671021,70.703468 426.671021,73.540894 
	C422.972534,73.724083 419.245880,73.908676 415.027313,74.117622 
	C415.027313,77.368454 415.027313,80.402763 415.027313,83.888885 
	C418.688110,83.888885 422.127380,83.888885 425.416595,83.888885 
	C427.759430,90.994339 427.004913,92.476105 420.536652,92.066666 
	C415.539429,91.750336 413.976959,93.636116 414.543884,98.288689 
	C414.782349,100.245689 414.583557,102.255981 414.583557,103.971909 
	C418.521423,107.269028 427.683563,100.615746 427.075958,111.585510 
	C426.153229,112.724594 425.185333,114.036110 424.174225,114.070320 
	C418.298950,114.269104 412.413483,114.167572 405.883301,114.167572 
	C405.883301,104.344223 405.883301,95.137451 405.816345,85.466461 
z"/>
<path fill="#FFFCFA" opacity="1.000000" stroke="none" 
	d="
M334.337219,92.455414 
	C334.224091,83.493538 334.224091,74.989151 334.224091,66.095764 
	C337.906799,66.095764 340.330322,66.095764 343.174469,66.186081 
	C343.595123,66.276405 343.605408,66.220192 343.629089,66.668434 
	C343.652771,72.363297 343.652771,77.609917 343.652771,82.856544 
	C344.003998,82.993187 344.355225,83.129829 344.706482,83.266479 
	C346.541199,79.635536 348.375946,76.004601 350.210663,72.373665 
	C352.876465,67.240952 356.569092,64.218475 363.651215,66.765350 
	C361.549194,70.530510 359.855774,74.624870 357.246887,78.014671 
	C351.922577,84.932709 351.424561,91.332016 356.904602,98.509621 
	C360.185577,102.806923 362.400940,107.917816 365.313965,112.907051 
	C362.782593,116.130592 357.113342,115.951874 354.937805,112.519508 
	C351.534271,107.149765 348.440491,101.583679 345.215485,96.100769 
	C344.731628,96.125267 344.247742,96.149757 343.763885,96.174248 
	C343.763885,102.250938 343.763885,108.327621 343.763885,114.709785 
	C340.236877,114.709785 337.828735,114.709785 334.450378,114.709785 
	C334.450378,107.409386 334.450378,100.161140 334.337219,92.455414 
z"/>
<path fill="#FD8435" opacity="1.000000" stroke="none" 
	d="
M350.045471,72.043854 
	C348.375946,76.004601 346.541199,79.635536 344.706482,83.266479 
	C344.355225,83.129829 344.003998,82.993187 343.652771,82.856544 
	C343.652771,77.609917 343.652771,72.363297 343.632080,66.697250 
	C345.701019,68.089890 347.790680,69.901962 350.045471,72.043854 
z"/>
<path fill="#F36D15" opacity="1.000000" stroke="none" 
	d="
M63.942051,98.994949 
	C63.514622,98.007805 63.266575,96.298241 62.633083,96.140930 
	C51.574497,93.394989 50.218452,83.876053 57.329895,76.440605 
	C62.036144,71.519920 66.555214,66.216377 74.414581,66.771706 
	C75.142075,66.823105 75.916641,66.208244 76.543282,65.953911 
	C76.676369,65.432251 76.864716,65.112213 76.812752,64.837654 
	C74.337257,51.758442 81.023979,45.745438 93.859306,49.906029 
	C98.905510,51.541763 104.371422,52.698410 107.699043,57.884270 
	C108.299858,58.820587 112.125526,58.716286 113.731255,57.804665 
	C121.534126,53.374714 126.862991,54.662930 130.611679,62.886906 
	C133.703369,69.669579 134.875153,76.784370 132.295959,84.117851 
	C131.410934,86.634224 132.383499,87.889755 134.916473,88.909340 
	C142.698059,92.041656 144.682999,98.929848 139.616180,105.730194 
	C135.113434,111.773491 129.769119,116.827103 121.774872,118.205978 
	C120.672791,118.396080 119.159218,121.003716 119.231339,122.421135 
	C119.710632,131.839828 115.950790,136.068329 106.641838,135.039291 
	C99.836548,134.287033 93.175392,132.814514 88.477310,126.712433 
	C87.053673,124.863350 84.342484,123.923264 81.374634,126.097771 
	C74.628845,131.040344 68.878914,129.514053 65.095581,122.003807 
	C61.529499,114.924828 61.304577,107.295753 62.585190,99.741425 
	C63.630047,103.968147 63.827335,108.178215 65.067032,112.054947 
	C66.238983,115.719826 68.204575,119.249931 70.449120,122.390472 
	C71.273582,123.544067 73.960617,123.892487 75.673218,123.665672 
	C76.542824,123.550499 77.135185,121.341995 78.199387,119.900070 
	C79.134056,119.554031 80.146736,119.521637 80.247627,119.201714 
	C82.221359,112.943024 84.173164,106.673157 85.851868,100.332085 
	C86.025513,99.676170 84.623047,98.153496 83.646713,97.719383 
	C79.076347,95.687248 73.594666,94.322502 70.059265,98.043076 
	C66.303101,101.995972 69.675224,106.743256 71.994370,110.792686 
	C72.405708,111.510925 72.955940,112.148163 73.397194,112.850960 
	C74.927719,115.288643 76.438492,117.738739 77.615082,120.123398 
	C70.236061,114.681259 64.742096,108.323227 63.942051,98.994949 
M68.204285,70.048965 
	C64.856094,73.919609 61.002308,77.471123 58.301300,81.750267 
	C55.577007,86.066307 57.698441,89.256279 61.734890,89.585228 
	C64.466415,83.087509 67.080994,76.868011 70.095078,70.311325 
	C70.180977,69.963226 70.266869,69.615128 70.352768,69.267029 
	C69.846992,69.449654 69.341209,69.632278 68.204285,70.048965 
M116.540642,64.480621 
	C115.969421,64.691231 114.996429,64.777191 114.886681,65.130951 
	C112.941399,71.401596 111.050949,77.691154 109.327606,84.025314 
	C109.179955,84.568016 110.198311,85.979073 110.835938,86.094017 
	C114.693314,86.789375 118.603241,87.664307 122.484329,87.613792 
	C125.823936,87.570320 127.779831,84.938843 126.590034,81.715195 
	C125.013168,77.442795 122.712410,73.425812 120.574394,69.377411 
	C119.556946,67.450844 118.196548,65.705391 117.684235,63.940811 
	C122.515747,69.274605 127.347267,74.608406 131.885239,79.618149 
	C130.730255,73.577400 130.373596,66.454514 124.583572,61.491543 
	C121.220528,58.608871 118.383018,59.661861 116.540642,64.480621 
M127.406746,93.227531 
	C123.542999,94.135605 119.599724,94.795746 115.832298,96.004135 
	C108.333267,98.409439 107.450958,100.955185 111.331261,107.849640 
	C111.816933,108.712570 112.448715,109.497955 113.052490,110.288971 
	C116.425171,114.707466 119.284126,115.191055 122.569527,110.657501 
	C125.824608,106.165794 127.962921,100.847961 130.360535,95.783340 
	C130.553940,95.374786 128.962357,94.121208 127.406746,93.227531 
M110.444954,117.106346 
	C108.571159,115.014626 106.885284,112.708824 104.789902,110.869537 
	C97.139648,104.154266 93.566139,105.218460 89.388382,114.798126 
	C87.498260,119.132210 88.976082,121.340431 93.027275,122.676697 
	C99.767525,124.899933 106.213829,123.331955 113.100548,121.697487 
	C112.145569,119.989746 111.505707,118.845505 110.444954,117.106346 
M94.394775,76.380318 
	C96.899628,79.284431 99.213661,78.648544 101.302406,75.921623 
	C102.807434,73.956772 104.479843,72.040169 105.561684,69.847504 
	C107.928368,65.050682 106.696960,61.923126 101.346184,61.321892 
	C95.276985,60.639935 89.057678,61.293980 82.903625,61.367188 
	C82.564384,62.167583 82.225151,62.967979 81.885910,63.768375 
	C85.859489,67.819542 89.833076,71.870712 94.394775,76.380318 
M69.207527,90.717979 
	C72.427933,90.000443 75.708771,89.482010 78.856903,88.526367 
	C86.879639,86.090988 87.817879,83.622612 83.826141,76.078011 
	C83.289108,75.062988 82.571800,74.135178 81.876022,73.213760 
	C79.483612,70.045540 76.100128,69.501030 73.945221,72.514267 
	C70.460243,77.387367 67.893440,82.926796 65.170563,88.302185 
	C65.053284,88.533714 67.252846,89.938820 69.207527,90.717979 
M125.670914,114.946007 
	C129.508514,110.725388 133.881165,106.863258 137.021942,102.175743 
	C139.751984,98.101227 137.758987,95.217270 133.621017,94.591927 
	C130.683716,101.511436 127.830093,108.233871 125.670914,114.946007 
M101.869087,126.606277 
	C98.551414,126.790123 95.233749,126.973969 90.541862,127.233963 
	C97.441490,130.369095 103.075096,132.335297 109.373573,131.139053 
	C113.734390,130.310837 114.768440,128.426788 113.206413,123.714989 
	C109.719482,124.616600 106.219688,125.521545 101.869087,126.606277 
M81.377457,55.999088 
	C81.377457,57.495754 81.377457,58.992420 81.377457,60.040543 
	C88.961830,58.703827 96.044350,57.455566 104.051018,56.044426 
	C101.245110,55.178326 99.251350,54.505283 97.224129,53.955627 
	C95.638992,53.525837 93.945518,52.780483 92.417557,52.998383 
	C88.838570,53.508778 85.330048,54.513317 81.377457,55.999088 
M96.822090,87.867592 
	C93.104378,90.292564 92.177780,93.148483 94.728401,95.012878 
	C95.866013,95.844429 97.962105,96.498077 99.035744,95.990326 
	C100.311928,95.386787 101.998688,93.030746 101.656288,92.173714 
	C100.954323,90.416710 99.017319,89.153145 96.822090,87.867592 
z"/>
<path fill="#322D2F" opacity="1.000000" stroke="none" 
	d="
M77.852890,120.079842 
	C77.135185,121.341995 76.542824,123.550499 75.673218,123.665672 
	C73.960617,123.892487 71.273582,123.544067 70.449120,122.390472 
	C68.204575,119.249931 66.238983,115.719826 65.067032,112.054947 
	C63.827335,108.178215 63.630047,103.968147 62.917992,99.482727 
	C63.039055,99.049377 63.219559,99.036980 63.671059,99.009766 
	C64.742096,108.323227 70.236061,114.681259 77.587860,120.098572 
	C77.902328,120.134468 77.852890,120.079842 77.852890,120.079842 
z"/>
<path fill="#FD8333" opacity="1.000000" stroke="none" 
	d="
M234.509735,78.753975 
	C237.462006,86.363609 237.924561,93.672333 234.953751,101.000015 
	C233.374496,104.895317 230.663956,107.267860 226.219757,107.141853 
	C222.035599,107.023209 219.460083,104.744408 217.981659,101.009956 
	C215.287979,94.205879 214.968018,87.153938 217.979248,80.603394 
	C219.396912,77.519455 222.581863,74.365311 225.703354,73.172264 
	C229.540726,71.705605 232.346085,75.103401 234.509735,78.753975 
z"/>
<path fill="#FD8A3F" opacity="1.000000" stroke="none" 
	d="
M519.155090,77.804138 
	C524.614136,85.943977 524.353699,94.531517 522.251038,103.100586 
	C520.849060,108.814232 516.508850,112.583565 512.404114,112.256912 
	C511.207520,112.161690 509.192078,110.379059 509.170410,109.336250 
	C508.935608,98.039871 509.023743,86.736778 509.023743,75.294479 
	C513.087708,73.885048 516.121094,75.114731 519.155090,77.804138 
z"/>
<path fill="#FD8F48" opacity="1.000000" stroke="none" 
	d="
M463.192688,76.869553 
	C468.532440,86.649048 473.574310,96.556297 478.944031,107.107796 
	C471.772552,107.107796 465.277954,107.107796 458.783386,107.107796 
	C458.511536,106.670639 458.239685,106.233482 457.967834,105.796318 
	C459.732574,104.800613 461.396332,103.336243 463.287811,102.928719 
	C465.612457,102.427864 468.127136,102.809189 471.415100,102.809189 
	C468.622894,97.149887 466.226288,92.292336 463.273651,86.307838 
	C458.863708,95.122902 454.864868,103.116165 450.351013,112.138885 
	C460.126617,112.138885 469.004089,112.108223 477.881226,112.153000 
	C481.782806,112.172676 481.782440,112.242432 482.836426,116.777924 
	C469.701324,116.777924 456.621307,116.777924 442.728241,116.777924 
	C449.577667,103.266731 456.236267,90.132027 463.192688,76.869553 
z"/>
<path fill="#FD8F48" opacity="1.000000" stroke="none" 
	d="
M387.003479,75.974670 
	C390.071716,83.362289 388.161469,87.413818 380.677185,88.663193 
	C380.677185,84.223076 379.865356,79.676643 380.920441,75.615196 
	C381.853516,72.023491 384.760376,74.286636 387.003479,75.974670 
z"/>
<path fill="#2A2B30" opacity="1.000000" stroke="none" 
	d="
M127.803497,93.243919 
	C128.962357,94.121208 130.553940,95.374786 130.360535,95.783340 
	C127.962921,100.847961 125.824608,106.165794 122.569527,110.657501 
	C119.284126,115.191055 116.425171,114.707466 113.052490,110.288971 
	C112.448715,109.497955 111.816933,108.712570 111.331261,107.849640 
	C107.450958,100.955185 108.333267,98.409439 115.832298,96.004135 
	C119.599724,94.795746 123.542999,94.135605 127.803497,93.243919 
z"/>
<path fill="#292A30" opacity="1.000000" stroke="none" 
	d="
M116.991501,63.877903 
	C118.196548,65.705391 119.556946,67.450844 120.574394,69.377411 
	C122.712410,73.425812 125.013168,77.442795 126.590034,81.715195 
	C127.779831,84.938843 125.823936,87.570320 122.484329,87.613792 
	C118.603241,87.664307 114.693314,86.789375 110.835938,86.094017 
	C110.198311,85.979073 109.179955,84.568016 109.327606,84.025314 
	C111.050949,77.691154 112.941399,71.401596 114.886681,65.130951 
	C114.996429,64.777191 115.969421,64.691231 116.798447,64.198776 
	C117.056244,63.916924 116.991501,63.877903 116.991501,63.877903 
z"/>
<path fill="#292A30" opacity="1.000000" stroke="none" 
	d="
M110.655396,117.403809 
	C111.505707,118.845505 112.145569,119.989746 113.100548,121.697487 
	C106.213829,123.331955 99.767525,124.899933 93.027275,122.676697 
	C88.976082,121.340431 87.498260,119.132210 89.388382,114.798126 
	C93.566139,105.218460 97.139648,104.154266 104.789902,110.869537 
	C106.885284,112.708824 108.571159,115.014626 110.655396,117.403809 
z"/>
<path fill="#292A30" opacity="1.000000" stroke="none" 
	d="
M94.100716,76.151100 
	C89.833076,71.870712 85.859489,67.819542 81.885910,63.768375 
	C82.225151,62.967979 82.564384,62.167583 82.903625,61.367188 
	C89.057678,61.293980 95.276985,60.639935 101.346184,61.321892 
	C106.696960,61.923126 107.928368,65.050682 105.561684,69.847504 
	C104.479843,72.040169 102.807434,73.956772 101.302406,75.921623 
	C99.213661,78.648544 96.899628,79.284431 94.100716,76.151100 
z"/>
<path fill="#282A30" opacity="1.000000" stroke="none" 
	d="
M77.929550,120.159286 
	C76.438492,117.738739 74.927719,115.288643 73.397194,112.850960 
	C72.955940,112.148163 72.405708,111.510925 71.994370,110.792686 
	C69.675224,106.743256 66.303101,101.995972 70.059265,98.043076 
	C73.594666,94.322502 79.076347,95.687248 83.646713,97.719383 
	C84.623047,98.153496 86.025513,99.676170 85.851868,100.332085 
	C84.173164,106.673157 82.221359,112.943024 80.247627,119.201714 
	C80.146736,119.521637 79.134056,119.554031 78.199387,119.900070 
	C77.852890,120.079842 77.902328,120.134468 77.929550,120.159286 
z"/>
<path fill="#282A30" opacity="1.000000" stroke="none" 
	d="
M68.790329,90.757607 
	C67.252846,89.938820 65.053284,88.533714 65.170563,88.302185 
	C67.893440,82.926796 70.460243,77.387367 73.945221,72.514267 
	C76.100128,69.501030 79.483612,70.045540 81.876022,73.213760 
	C82.571800,74.135178 83.289108,75.062988 83.826141,76.078011 
	C87.817879,83.622612 86.879639,86.090988 78.856903,88.526367 
	C75.708771,89.482010 72.427933,90.000443 68.790329,90.757607 
z"/>
<path fill="#312D2F" opacity="1.000000" stroke="none" 
	d="
M117.074829,63.949837 
	C118.383018,59.661861 121.220528,58.608871 124.583572,61.491543 
	C130.373596,66.454514 130.730255,73.577400 131.885239,79.618149 
	C127.347267,74.608406 122.515747,69.274605 117.337868,63.909355 
	C116.991501,63.877903 117.056244,63.916924 117.074829,63.949837 
z"/>
<path fill="#322D2F" opacity="1.000000" stroke="none" 
	d="
M125.323685,114.951157 
	C127.830093,108.233871 130.683716,101.511436 133.621017,94.591927 
	C137.758987,95.217270 139.751984,98.101227 137.021942,102.175743 
	C133.881165,106.863258 129.508514,110.725388 125.323685,114.951157 
z"/>
<path fill="#322D2F" opacity="1.000000" stroke="none" 
	d="
M69.695564,70.648506 
	C67.080994,76.868011 64.466415,83.087509 61.734890,89.585228 
	C57.698441,89.256279 55.577007,86.066307 58.301300,81.750267 
	C61.002308,77.471123 64.856094,73.919609 68.731476,70.143860 
	C69.404297,70.375343 69.549927,70.511925 69.695564,70.648506 
z"/>
<path fill="#2D2C2F" opacity="1.000000" stroke="none" 
	d="
M102.294495,126.516380 
	C106.219688,125.521545 109.719482,124.616600 113.206413,123.714989 
	C114.768440,128.426788 113.734390,130.310837 109.373573,131.139053 
	C103.075096,132.335297 97.441490,130.369095 90.541862,127.233963 
	C95.233749,126.973969 98.551414,126.790123 102.294495,126.516380 
z"/>
<path fill="#2F2C2F" opacity="1.000000" stroke="none" 
	d="
M81.585228,55.658447 
	C85.330048,54.513317 88.838570,53.508778 92.417557,52.998383 
	C93.945518,52.780483 95.638992,53.525837 97.224129,53.955627 
	C99.251350,54.505283 101.245110,55.178326 104.051018,56.044426 
	C96.044350,57.455566 88.961830,58.703827 81.377457,60.040543 
	C81.377457,58.992420 81.377457,57.495754 81.585228,55.658447 
z"/>
<path fill="#372F2E" opacity="1.000000" stroke="none" 
	d="
M97.205437,87.777008 
	C99.017319,89.153145 100.954323,90.416710 101.656288,92.173714 
	C101.998688,93.030746 100.311928,95.386787 99.035744,95.990326 
	C97.962105,96.498077 95.866013,95.844429 94.728401,95.012878 
	C92.177780,93.148483 93.104378,90.292564 97.205437,87.777008 
z"/>
<path fill="#322D2F" opacity="1.000000" stroke="none" 
	d="
M69.047050,70.026833 
	C69.341209,69.632278 69.846992,69.449654 70.352768,69.267029 
	C70.266869,69.615128 70.180977,69.963226 69.895325,70.479919 
	C69.549927,70.511925 69.404297,70.375343 69.047050,70.026833 
z"/>
</svg>